<?xml version="1.0" standalone="no"?>
<!DOCTYPE svg PUBLIC "-//W3C//DTD SVG 20010904//EN"
 "http://www.w3.org/TR/2001/REC-SVG-20010904/DTD/svg10.dtd">
<svg version="1.0" xmlns="http://www.w3.org/2000/svg"
 width="512.000000pt" height="512.000000pt" viewBox="0 0 512.000000 512.000000"
 preserveAspectRatio="xMidYMid meet">

<g transform="translate(0.000000,512.000000) scale(0.100000,-0.100000)"
fill="#000000" stroke="none">
<path d="M4295 5110 c-256 -40 -418 -274 -371 -536 l7 -41 -258 -193 -258
-193 60 -61 c33 -34 73 -87 89 -119 l29 -57 31 23 c17 13 134 101 260 195
l229 172 31 -19 c75 -45 207 -68 296 -51 187 36 331 184 362 374 38 231 -126
461 -361 506 -59 11 -73 11 -146 0z"/>
<path d="M695 3609 c-87 -13 -191 -68 -254 -134 -250 -264 -97 -693 265 -744
119 -17 244 16 331 88 l36 30 217 -109 c120 -60 220 -106 224 -103 3 4 6 14 6
24 0 36 41 125 81 179 23 30 38 56 33 58 -5 1 -103 51 -219 110 -208 106 -210
107 -207 137 11 107 -46 253 -132 338 -105 106 -234 148 -381 126z"/>
<path d="M4016 3610 c-41 -13 -84 -58 -96 -99 -6 -23 -10 -609 -10 -1623 l0
-1588 -1350 0 -1350 0 0 847 c0 834 0 847 -21 889 -15 32 -32 48 -64 64 -42
21 -55 21 -372 18 -309 -3 -330 -4 -363 -23 -19 -12 -43 -36 -55 -55 -20 -34
-20 -51 -23 -886 l-3 -852 -104 -4 c-85 -3 -109 -7 -131 -24 -50 -37 -68 -70
-68 -124 0 -54 18 -87 68 -124 l27 -21 2451 -3 c2248 -2 2452 -1 2484 14 53
25 79 69 79 134 0 41 -6 63 -22 86 -36 50 -77 64 -187 64 l-96 0 0 1601 c0
1773 5 1643 -64 1692 -30 22 -37 22 -366 24 -184 1 -348 -2 -364 -7z"/>
<path d="M2455 3280 c-164 -164 -297 -301 -295 -303 3 -2 22 -13 42 -26 43
-26 144 -132 153 -161 3 -11 9 -20 13 -20 4 0 141 134 305 298 l299 299 -33
13 c-42 18 -141 114 -165 162 l-19 38 -300 -300z"/>
</g>
</svg>
